<?xml version="1.0" encoding="utf-8"?>
<!-- Generator: Adobe Illustrator 25.2.2, SVG Export Plug-In . SVG Version: 6.00 Build 0)  -->
<svg version="1.1" id="Layer_1" xmlns="http://www.w3.org/2000/svg" xmlns:xlink="http://www.w3.org/1999/xlink" x="0px" y="0px"
	 viewBox="0 0 100 100" style="enable-background:new 0 0 100 100;" xml:space="preserve">
<style type="text/css">
	.st0{fill:none;stroke:#231F20;stroke-width:4;stroke-miterlimit:10;}
</style>
<g>
	<g>
		<path d="M36.6,46.2v-3.2l4.3-2.5h2.9v14h3.9v2.9H36.6v-2.9h3.9V44L36.6,46.2z"/>
	</g>
	<g>
		<path d="M72.1,30l3.4,0l0,15.4L72.7,47l-7.6,0l-2.8-1.6l0-15.4l3.4,0l0,13.9l6.4,0L72.1,30z"/>
		<path d="M79.6,46.8l0-16.9l8.9,0l2.8,1.6l0,7.5l-2.8,1.6l-5.5,0l0,6.1L79.6,46.8z M82.9,32.8l0,5l4.9,0l0-5L82.9,32.8z"/>
	</g>
	<path class="st0" d="M71,50c0,16-13,29-29,29s-29-13-29-29s13-29,29-29"/>
	<path class="st0" d="M42,21c6.9,0,13.2,2.4,18.2,6.4"/>
</g>
</svg>
